<?xml version="1.0" standalone="no"?>
<!DOCTYPE svg PUBLIC "-//W3C//DTD SVG 20010904//EN"
 "http://www.w3.org/TR/2001/REC-SVG-20010904/DTD/svg10.dtd">
<svg version="1.0" xmlns="http://www.w3.org/2000/svg"
 width="512.000000pt" height="512.000000pt" viewBox="0 0 512.000000 512.000000"
 preserveAspectRatio="xMidYMid meet">

<g transform="translate(0.000000,512.000000) scale(0.100000,-0.100000)"
fill="#fff" stroke="none">
<path d="M2320 4690 l0 -170 -27 0 c-50 0 -236 -47 -338 -85 -367 -136 -630 -406 -730 -750 -63 -219 -52 -486 29 -687 108 -267 363 -460 794 -601 92 -30 191 -61 220 -68 l52 -13 0 -539 0 -539 -32 7 c-80 16 -282 90 -383 139 -129 63 -288 168 -397 260 l-77 65 -191 -236 c-106 -129 -194 -241 -197 -248 -6
-16 149 -144 282 -233 265 -178 624 -313 948 -358 l47 -6 0 -184 0 -184 255 0
255 0 0 174 0 175 48 6 c394 49 667 160 876 355 239 224 356 549 325 904 -20
235 -102 410 -266 567 -177 171 -439 293 -855 399 l-128 33 0 519 0 519 23 -6
c262 -74 462 -174 664 -332 53 -41 96 -73 98 -71 48 60 365 498 365 504 -1 5
-36 36 -78 70 -307 243 -616 374 -1034 439 l-38 6 0 169 0 170 -255 0 -255 0
0 -170z m0 -1226 l0 -455 -22 6 c-57 17 -181 76 -231 109 -71 47 -132 114
-159 174 -18 38 -22 67 -22 148 -1 97 0 103 38 178 48 97 127 178 225 230 72
38 136 64 159 65 9 1 12 -96 12 -455z m679 -1335 c194 -72 307 -154 358 -256
35 -73 44 -209 19 -295 -53 -182 -226 -313 -478 -362 l-68 -14 0 490 0 490 33
-7 c17 -4 79 -24 136 -46z"/>
</g>
</svg>
