<?xml version="1.0" standalone="no"?>
<!DOCTYPE svg PUBLIC "-//W3C//DTD SVG 20010904//EN"
 "http://www.w3.org/TR/2001/REC-SVG-20010904/DTD/svg10.dtd">
<svg version="1.0" xmlns="http://www.w3.org/2000/svg"
 width="512.000000pt" height="512.000000pt" viewBox="0 0 512.000000 512.000000"
 preserveAspectRatio="xMidYMid meet">

<g transform="translate(0.000000,512.000000) scale(0.100000,-0.100000)"
fill="#fff" stroke="none">
<path d="M615 5101 c-49 -22 -91 -69 -105 -119 -8 -24 -10 -139 -8 -337 3
-284 4 -302 24 -340 12 -22 127 -209 256 -415 129 -206 243 -391 254 -410 18
-34 19 -75 22 -1140 2 -781 -1 -1120 -9 -1158 -15 -76 -51 -107 -281 -244
-203 -122 -240 -153 -258 -216 -5 -21 -10 -150 -10 -300 0 -215 3 -269 15
-300 21 -49 52 -81 100 -103 38 -18 114 -19 1945 -19 1831 0 1907 1 1945 19
48 22 79 54 100 103 12 31 15 85 15 300 0 279 -5 319 -46 368 -14 16 -120 86
-235 155 -130 79 -218 138 -234 159 -13 17 -29 54 -35 82 -7 33 -10 405 -8
1154 3 1065 4 1106 22 1140 11 19 125 204 254 410 129 206 244 393 256 415 20
38 21 56 24 340 4 322 0 352 -45 406 -55 65 -75 69 -399 69 -289 0 -290 0
-340 -25 -28 -14 -60 -40 -74 -62 -24 -35 -25 -44 -30 -229 -5 -185 -6 -195
-28 -216 -22 -23 -24 -23 -307 -23 -283 0 -285 0 -307 23 -22 21 -23 31 -28
216 l-5 194 -31 39 c-16 21 -50 48 -74 61 -43 22 -51 22 -387 22 -374 0 -387
-2 -446 -58 -49 -47 -52 -57 -57 -259 -5 -184 -6 -194 -28 -215 -22 -23 -24
-23 -307 -23 -283 0 -285 0 -307 23 -22 21 -23 31 -28 216 -5 185 -6 194 -30
229 -14 22 -46 48 -74 62 -50 25 -51 25 -340 25 -261 0 -295 -2 -331 -19z
m2107 -1650 c116 -40 230 -137 281 -238 53 -103 57 -142 57 -525 0 -404 0
-404 -80 -445 -44 -23 -50 -23 -420 -23 -370 0 -376 0 -420 23 -80 41 -80 41
-80 445 0 389 4 425 61 533 67 124 207 223 359 253 49 9 186 -3 242 -23z"/>
</g>
</svg>
