<?xml version="1.0" standalone="no"?>
<!DOCTYPE svg PUBLIC "-//W3C//DTD SVG 20010904//EN"
 "http://www.w3.org/TR/2001/REC-SVG-20010904/DTD/svg10.dtd">
<svg version="1.0" xmlns="http://www.w3.org/2000/svg"
 width="512.000000pt" height="512.000000pt" viewBox="0 0 512.000000 512.000000"
 preserveAspectRatio="xMidYMid meet">

<g transform="translate(0.000000,512.000000) scale(0.100000,-0.100000)"
fill="#fff" stroke="none">
<path d="M2405 5114 c-190 -21 -387 -78 -560 -164 -456 -225 -777 -639 -887
-1144 -19 -87 -22 -131 -22 -321 0 -190 3 -234 22 -321 56 -259 181 -523 333
-705 l39 -47 0 -264 0 -264 63 -62 63 -62 1105 0 1105 0 62 63 62 63 0 263 0
263 39 47 c151 181 278 449 332 699 30 140 37 409 15 558 -103 703 -635 1253
-1333 1379 -86 16 -359 27 -438 19z m-332 -2395 c105 -67 216 -137 244 -155
l53 -34 -79 -122 c-43 -68 -84 -122 -90 -120 -18 4 -480 296 -481 303 0 8 151
249 157 249 2 0 90 -55 196 -121z m1251 0 c42 -67 76 -124 76 -128 0 -7 -460
-298 -479 -303 -8 -2 -45 46 -92 120 l-79 122 48 30 c26 16 135 85 242 154
107 68 198 125 201 125 4 1 41 -53 83 -120z"/>
<path d="M0 2293 l0 -100 39 -11 c55 -17 124 -82 152 -144 24 -53 24 -53 30
-553 7 -535 7 -539 63 -702 157 -459 611 -782 1101 -783 163 0 380 50 515 119
50 25 55 30 52 57 -2 16 -6 219 -9 452 l-4 422 150 0 150 0 3 -408 3 -407 34
-63 c38 -70 70 -101 145 -140 43 -22 64 -26 136 -26 78 -1 90 2 148 33 73 39
105 74 141 151 l26 55 3 403 3 402 150 0 150 0 -4 -422 c-2 -233 -7 -435 -12
-450 -7 -25 -3 -29 61 -61 141 -71 342 -117 509 -117 489 1 933 316 1099 780
58 160 58 166 65 710 l6 505 27 51 c32 61 97 120 150 136 l38 11 0 100 0 100
-162 -6 c-105 -3 -184 -11 -223 -21 -175 -49 -321 -169 -403 -332 -61 -122
-64 -143 -69 -554 -5 -431 -6 -439 -84 -524 -67 -74 -129 -100 -234 -101 -61
0 -91 5 -126 22 -64 29 -125 87 -157 147 -26 49 -27 60 -32 241 l-5 190 -1065
0 -1065 0 -5 -190 c-5 -173 -7 -194 -28 -233 -35 -66 -88 -119 -150 -149 -48
-24 -69 -28 -137 -28 -105 1 -167 27 -234 101 -78 85 -79 93 -84 524 -5 411
-8 432 -69 554 -82 163 -229 284 -403 331 -38 11 -120 19 -222 22 l-163 6 0
-100z"/>
</g>
</svg>
