<?xml version="1.0" standalone="no"?>
<!DOCTYPE svg PUBLIC "-//W3C//DTD SVG 20010904//EN"
 "http://www.w3.org/TR/2001/REC-SVG-20010904/DTD/svg10.dtd">
<svg version="1.0" xmlns="http://www.w3.org/2000/svg"
 width="512.000000pt" height="512.000000pt" viewBox="0 0 512.000000 512.000000"
 preserveAspectRatio="xMidYMid meet">

<g transform="translate(0.000000,512.000000) scale(0.100000,-0.100000)"
fill="#fff" stroke="none">
<path d="M824 4652 c-67 -49 -179 -176 -233 -263 -104 -169 -145 -320 -144
-534 0 -119 4 -155 27 -240 24 -91 75 -216 112 -273 15 -23 15 -22 61 40 70
95 317 335 415 403 48 33 87 64 87 68 1 5 -15 29 -35 55 -51 67 -111 194 -135
287 -23 89 -29 233 -15 357 8 74 7 77 -17 102 -34 34 -74 33 -123 -2z"/>
<path d="M4175 4654 c-27 -25 -27 -27 -19 -97 16 -133 8 -282 -20 -380 -30
-102 -79 -203 -132 -272 l-37 -49 29 -23 c214 -163 368 -309 471 -445 57 -77
53 -78 106 27 194 388 115 856 -197 1165 -109 108 -149 123 -201 74z"/>
<path d="M2395 4094 c-252 -25 -415 -57 -605 -120 -467 -155 -876 -466 -1112
-846 -102 -164 -177 -349 -220 -545 -30 -133 -33 -471 -5 -606 24 -117 77
-277 127 -384 l40 -86 128 124 c138 135 224 208 372 314 52 37 98 70 102 74 4
3 0 31 -8 61 -65 250 109 507 373 552 178 30 360 -55 461 -215 37 -58 42 -63
93 -74 145 -34 296 -145 401 -294 l17 -24 23 30 c131 171 262 260 439 299 18
4 31 18 45 48 10 23 44 68 74 99 132 134 338 174 509 98 198 -87 311 -319 258
-526 l-14 -52 75 -52 c136 -95 276 -211 404 -337 l128 -125 44 94 c218 469
192 1018 -70 1473 -107 185 -279 386 -448 523 -313 251 -703 417 -1131 479
-99 14 -422 26 -500 18z"/>
<path d="M2110 2136 c0 -54 -34 -148 -75 -211 -147 -222 -468 -265 -672 -91
-22 20 -44 36 -48 36 -11 0 -125 -83 -238 -173 -108 -86 -357 -323 -357 -340
0 -19 112 -161 194 -246 435 -451 1063 -693 1736 -668 481 19 903 159 1282
427 119 84 312 270 404 390 l74 95 -98 98 c-53 54 -137 134 -187 176 -90 78
-288 229 -312 238 -7 3 -32 -12 -54 -32 -54 -49 -148 -92 -229 -104 -170 -27
-357 59 -452 208 -32 51 -68 157 -68 202 0 36 -15 37 -79 4 -100 -50 -209
-171 -279 -311 -32 -64 -71 -91 -110 -77 -23 8 -62 44 -62 58 0 6 -22 47 -49
90 -58 94 -165 202 -238 239 -71 35 -83 34 -83 -8z"/>
</g>
</svg>
